<svg width="84" height="83" viewBox="0 0 84 83" fill="none" xmlns="http://www.w3.org/2000/svg">
<path d="M83.1934 39.1284C83.2092 45.2043 81.7899 51.1977 79.0504 56.6212C75.8025 63.1198 70.8095 68.5859 64.6303 72.4072C58.4514 76.2283 51.3303 78.254 44.0652 78.2566C37.9893 78.2725 31.9959 76.8529 26.5725 74.1136L0.333618 82.86L9.07993 56.6212C6.34065 51.1977 4.92111 45.2043 4.93695 39.1284C4.93976 31.8633 6.96522 24.7422 10.7865 18.5633C14.6077 12.3842 20.0738 7.39109 26.5725 4.14312C31.9959 1.40383 37.9893 -0.0157101 44.0652 0.00013114H46.367C55.9619 0.529475 65.0244 4.57933 71.8194 11.3743C78.6144 18.1693 82.664 27.2317 83.1934 36.8266V39.1284Z" fill="#D9DEE6"/>
</svg>
