<svg width="84" height="78" viewBox="0 0 84 78" fill="none" xmlns="http://www.w3.org/2000/svg">
<path d="M19.2697 45.9777C20.7605 42.8739 20.5965 38.8293 18.8078 34.5896C15.6475 27.0947 10.2047 22.8135 5.57234 24.1772C0.947975 25.5397 -0.939273 31.8567 0.875824 39.896C1.85699 44.2414 4.11129 47.6279 7.22384 49.4342C8.71678 50.3004 10.3133 50.7434 11.8772 50.7434C12.6469 50.7434 13.4091 50.636 14.1474 50.4183C16.3933 49.7572 18.2126 48.1795 19.2697 45.9777Z" fill="#DCE1E7"/>
<path d="M22.0621 27.0483C23.9133 28.7317 26.1491 29.6349 28.4277 29.6349C28.6694 29.6349 28.9101 29.6248 29.1522 29.6047C31.6896 29.3911 33.9917 28.1109 35.6348 25.9996C37.9315 23.0473 38.721 18.7527 37.8564 13.9047C36.3199 5.29233 31.6036 -0.415135 26.387 0.0236427C21.1929 0.461162 17.6903 6.7236 17.6718 15.6065C17.6617 20.4008 19.2214 24.4639 22.0621 27.0483Z" fill="#DCE1E7"/>
<path d="M77.675 24.1775C73.0435 22.8137 67.5995 27.095 64.4387 34.5898C62.6505 38.8295 62.4864 42.8742 63.9773 45.9779C65.0344 48.1798 66.8537 49.7575 69.0996 50.4186C69.8379 50.6363 70.5992 50.7437 71.3698 50.7437C72.9328 50.7437 74.5302 50.3007 76.0231 49.4345C79.1357 47.6282 81.3904 44.2408 82.3711 39.8963C84.1862 31.8569 82.299 25.5399 77.675 24.1775Z" fill="#DCE1E7"/>
<path d="M54.0924 29.6045C54.3345 29.6246 54.5752 29.6347 54.816 29.6347C57.0951 29.6347 59.3322 28.7315 61.1825 27.0482C64.0232 24.4637 65.5829 20.4006 65.5728 15.6064C65.5535 6.72344 62.0517 0.460994 56.8576 0.0234744C51.6452 -0.413626 46.9247 5.29216 45.3882 13.9045C44.5236 18.7525 45.3122 23.0471 47.6097 25.9995C49.2529 28.1107 51.555 29.391 54.0924 29.6045Z" fill="#DCE1E7"/>
<path d="M61.291 52.8352C55.1347 48.3467 52.6224 41.4786 52.5977 41.4098L52.5868 41.3808C49.1294 32.9819 42.8418 32.6426 41.6337 32.6669C40.4084 32.6468 34.1187 32.9819 30.6575 41.39C30.6282 41.4635 27.6746 48.8203 21.9659 52.828C17.3293 56.0832 13.2608 62.2471 15.7433 69.7856C15.8163 70.0344 16.6162 72.6305 18.9544 74.8391C22.9827 78.6446 28.2887 78.2386 32.0305 77.2285L32.0557 77.2213C32.0922 77.2096 35.7253 76.0795 38.9389 75.2728C40.6957 74.832 42.5524 74.8328 44.3087 75.2728C47.5215 76.0787 51.1559 77.2096 51.1924 77.2213L51.2168 77.2285C53.0327 77.7184 54.6536 77.9256 56.097 77.9256C60.0456 77.9256 62.6657 76.3765 64.2937 74.8391C66.6319 72.6305 67.4318 70.0327 67.5048 69.7856C70.5649 60.4916 63.5235 54.4619 61.291 52.8352Z" fill="#DCE1E7"/>
</svg>
